<svg xmlns="http://www.w3.org/2000/svg" width="980" height="360" viewBox="0 0 980 360">
<style>text{font-family:Arial,sans-serif;font-size:18px;fill:#1f2933}.small{font-size:14px;fill:#52606d}.box{fill:#f5f7fa;stroke:#52606d;stroke-width:2;rx:10}.primary{fill:#e8f4ff;stroke:#2f6fbb}.fast{fill:#ecfdf3;stroke:#499f68}.arrow{stroke:#1f2933;stroke-width:2;marker-end:url(#m)}</style>
<defs><marker id="m" markerWidth="10" markerHeight="10" refX="8" refY="3" orient="auto"><path d="M0,0 L0,6 L9,3 z" fill="#1f2933"/></marker></defs>
<rect class="box" x="30" y="60" width="180" height="80"/><text x="120" y="94" text-anchor="middle">Image / USB camera</text><text class="small" x="120" y="120" text-anchor="middle">still, normal, fast-live</text>
<rect class="box" x="270" y="45" width="190" height="110"/><text x="365" y="85" text-anchor="middle">Demo scripts</text><text class="small" x="365" y="112" text-anchor="middle">runtime/model selection</text><text class="small" x="365" y="134" text-anchor="middle">display/headless handling</text>
<rect class="primary" x="520" y="35" width="190" height="90"/><text x="615" y="75" text-anchor="middle">C++ app</text><text class="small" x="615" y="102" text-anchor="middle">preprocess, ORT, decode</text>
<rect class="box" x="760" y="25" width="180" height="110"/><text x="850" y="64" text-anchor="middle">SpacemiT ORT</text><text class="small" x="850" y="92" text-anchor="middle">SpaceMIT EP</text><text class="small" x="850" y="114" text-anchor="middle">rt123 / rt201</text>
<rect class="box" x="520" y="215" width="190" height="75"/><text x="615" y="252" text-anchor="middle">Models</text><text class="small" x="615" y="275" text-anchor="middle">dynamic640, vendor320, FP16 exp.</text>
<rect class="fast" x="760" y="215" width="180" height="75"/><text x="850" y="252" text-anchor="middle">Outputs</text><text class="small" x="850" y="275" text-anchor="middle">annotated frames, logs</text>
<line class="arrow" x1="210" y1="100" x2="270" y2="100"/><line class="arrow" x1="460" y1="92" x2="520" y2="82"/><line class="arrow" x1="710" y1="80" x2="760" y2="80"/><line class="arrow" x1="615" y1="215" x2="615" y2="125"/><line class="arrow" x1="710" y1="252" x2="760" y2="252"/></svg>